<svg width="1038" height="158" viewBox="0 0 1038 158" fill="none" xmlns="http://www.w3.org/2000/svg">
<g clip-path="url(#clip0_1_5042)">
<line x1="-0.353553" y1="177.646" x2="177.646" y2="-0.353548" stroke="#63B178"/>
<line x1="19.6464" y1="177.646" x2="197.646" y2="-0.353548" stroke="#63B178"/>
<line x1="39.6464" y1="177.646" x2="217.646" y2="-0.353548" stroke="#63B178"/>
<line x1="59.6464" y1="177.646" x2="237.646" y2="-0.353548" stroke="#63B178"/>
<line x1="79.6464" y1="177.646" x2="257.646" y2="-0.353548" stroke="#63B178"/>
<line x1="99.6464" y1="177.646" x2="277.646" y2="-0.353548" stroke="#63B178"/>
<line x1="119.646" y1="177.646" x2="297.646" y2="-0.353548" stroke="#63B178"/>
<line x1="139.646" y1="177.646" x2="317.646" y2="-0.353548" stroke="#63B178"/>
<line x1="159.646" y1="177.646" x2="337.646" y2="-0.353548" stroke="#63B178"/>
<line x1="179.646" y1="177.646" x2="357.646" y2="-0.353548" stroke="#63B178"/>
<line x1="199.646" y1="177.646" x2="377.646" y2="-0.353548" stroke="#63B178"/>
<line x1="219.646" y1="177.646" x2="397.646" y2="-0.353548" stroke="#63B178"/>
<line x1="239.646" y1="177.646" x2="417.646" y2="-0.353548" stroke="#63B178"/>
<line x1="259.646" y1="177.646" x2="437.646" y2="-0.353548" stroke="#63B178"/>
<line x1="279.646" y1="177.646" x2="457.646" y2="-0.353548" stroke="#63B178"/>
<line x1="299.646" y1="177.646" x2="477.646" y2="-0.353548" stroke="#63B178"/>
<line x1="319.646" y1="177.646" x2="497.646" y2="-0.353548" stroke="#63B178"/>
<line x1="339.646" y1="177.646" x2="517.646" y2="-0.353548" stroke="#63B178"/>
<line x1="359.646" y1="177.646" x2="537.646" y2="-0.353548" stroke="#63B178"/>
<line x1="379.646" y1="177.646" x2="557.646" y2="-0.353548" stroke="#63B178"/>
<line x1="399.646" y1="177.646" x2="577.646" y2="-0.353548" stroke="#63B178"/>
<line x1="419.646" y1="177.646" x2="597.646" y2="-0.353548" stroke="#63B178"/>
<line x1="439.646" y1="177.646" x2="617.646" y2="-0.353548" stroke="#63B178"/>
<line x1="459.646" y1="177.646" x2="637.646" y2="-0.353548" stroke="#63B178"/>
<line x1="479.646" y1="177.646" x2="657.646" y2="-0.353548" stroke="#63B178"/>
<line x1="499.646" y1="177.646" x2="677.646" y2="-0.353548" stroke="#63B178"/>
<line x1="519.646" y1="177.646" x2="697.646" y2="-0.353548" stroke="#63B178"/>
<line x1="539.646" y1="177.646" x2="717.646" y2="-0.353548" stroke="#63B178"/>
<line x1="559.646" y1="177.646" x2="737.646" y2="-0.353548" stroke="#63B178"/>
<line x1="579.646" y1="177.646" x2="757.646" y2="-0.353548" stroke="#63B178"/>
<line x1="599.646" y1="177.646" x2="777.646" y2="-0.353548" stroke="#63B178"/>
<line x1="619.646" y1="177.646" x2="797.646" y2="-0.353548" stroke="#63B178"/>
<line x1="639.646" y1="177.646" x2="817.646" y2="-0.353548" stroke="#63B178"/>
<line x1="659.646" y1="177.646" x2="837.646" y2="-0.353548" stroke="#63B178"/>
<line x1="679.646" y1="177.646" x2="857.646" y2="-0.353548" stroke="#63B178"/>
<line x1="699.646" y1="177.646" x2="877.646" y2="-0.353548" stroke="#63B178"/>
<line x1="719.646" y1="177.646" x2="897.646" y2="-0.353548" stroke="#63B178"/>
<line x1="739.646" y1="177.646" x2="917.646" y2="-0.353548" stroke="#63B178"/>
<line x1="759.646" y1="177.646" x2="937.646" y2="-0.353548" stroke="#63B178"/>
<line x1="779.646" y1="177.646" x2="957.646" y2="-0.353548" stroke="#63B178"/>
<line x1="799.646" y1="177.646" x2="977.646" y2="-0.353548" stroke="#63B178"/>
<line x1="819.646" y1="177.646" x2="997.646" y2="-0.353548" stroke="#63B178"/>
<line x1="839.646" y1="177.646" x2="1017.65" y2="-0.353548" stroke="#63B178"/>
<line x1="859.646" y1="177.646" x2="1037.65" y2="-0.353548" stroke="#63B178"/>
</g>
<defs>
<clipPath id="clip0_1_5042">
<rect width="1038" height="158" fill="white"/>
</clipPath>
</defs>
</svg>
