<svg width="514" height="421" viewBox="0 0 514 421" fill="none" xmlns="http://www.w3.org/2000/svg">
<path d="M451.598 234.411C438.33 337.338 344.137 410.02 241.211 396.752C138.284 383.484 65.6007 289.291 78.8685 186.364C92.1364 83.4374 186.331 10.7557 289.257 24.0236C392.184 37.2914 464.866 131.484 451.598 234.411Z" stroke="#3AD9AC" stroke-width="3" stroke-linecap="square" stroke-dasharray="5 10"/>
<path d="M216.103 103.003H314.27C317.125 103.003 319.441 105.319 319.441 108.175V316.977C319.441 319.834 317.125 322.148 314.27 322.148H216.103C213.247 322.148 210.932 319.834 210.932 316.977V108.175C210.932 105.319 213.247 103.003 216.103 103.003Z" fill="#454061"/>
<path d="M241.397 107.616H217.435C216.006 107.616 214.848 108.774 214.848 110.202V315.369C214.848 316.797 216.006 317.954 217.435 317.954H312.939C314.367 317.954 315.526 316.797 315.526 315.369V110.209C315.526 108.781 314.367 107.623 312.939 107.623H241.397V107.616Z" fill="#36A691"/>
<path d="M223.453 112.833H232.596V116.719H223.453V112.833Z" fill="#454061"/>
<path d="M223.453 112.833H232.596V116.719H223.453V112.833Z" stroke="#454061" stroke-width="0.5" stroke-linecap="round" stroke-linejoin="round"/>
<path d="M232.596 113.487H234.015V116.067H232.596V113.487Z" fill="#454061"/>
<path d="M232.596 113.487H234.015V116.067H232.596V113.487Z" stroke="#454061" stroke-width="0.5" stroke-linecap="round" stroke-linejoin="round"/>
<path d="M295.802 115.311H297.425V116.719H295.802V115.311Z" fill="#454061"/>
<path d="M295.802 115.311H297.425V116.719H295.802V115.311Z" stroke="#454061" stroke-width="0.5" stroke-linecap="round" stroke-linejoin="round"/>
<path d="M298.968 113.893H300.591V116.721H298.968V113.893Z" fill="#454061"/>
<path d="M298.968 113.893H300.591V116.721H298.968V113.893Z" stroke="#454061" stroke-width="0.5" stroke-linecap="round" stroke-linejoin="round"/>
<path d="M302.133 112.474H303.756V116.721H302.133V112.474Z" fill="#454061"/>
<path d="M302.133 112.474H303.756V116.721H302.133V112.474Z" stroke="#454061" stroke-width="0.5" stroke-linecap="round" stroke-linejoin="round"/>
<path d="M305.298 111.057H306.921V116.721H305.298V111.057Z" fill="#454061"/>
<path d="M305.298 111.057H306.921V116.721H305.298V111.057Z" stroke="#454061" stroke-width="0.5" stroke-linecap="round" stroke-linejoin="round"/>
<path d="M390.216 261.619L507.006 264.935C510.346 265.03 512.978 267.816 512.883 271.155L510.886 341.48C510.791 344.819 508.006 347.452 504.666 347.357L387.876 344.041C384.535 343.946 381.905 341.16 382 337.82L383.997 267.496C384.092 264.157 386.875 261.524 390.216 261.619Z" fill="#454061"/>
<path d="M389.338 261.594L507.883 264.96C510.74 265.041 512.988 267.422 512.907 270.276L512.4 288.134L383.513 284.474L384.02 266.616C384.101 263.762 386.482 261.513 389.338 261.594Z" fill="#79768E"/>
<path d="M398.113 293.804L422.016 294.483C423.919 294.537 425.419 296.123 425.365 298.027L424.972 311.879C424.918 313.783 423.33 315.282 421.427 315.228L397.524 314.549C395.62 314.495 394.12 312.909 394.174 311.005L394.568 297.153C394.622 295.249 396.209 293.75 398.113 293.804Z" fill="#575274"/>
<path d="M473.392 295.942L497.295 296.62C499.198 296.674 500.698 298.261 500.644 300.165L500.639 300.33C500.585 302.234 498.997 303.732 497.095 303.678L473.192 303C471.288 302.946 469.788 301.359 469.842 299.455L469.846 299.29C469.901 297.386 471.488 295.888 473.392 295.942Z" fill="#575274"/>
<path d="M484.475 307.672L496.972 308.027C498.876 308.081 500.374 309.667 500.32 311.571L500.315 311.736C500.261 313.64 498.675 315.139 496.771 315.085L484.275 314.73C482.371 314.676 480.872 313.09 480.926 311.186L480.931 311.021C480.985 309.117 482.571 307.618 484.475 307.672Z" fill="#575274"/>
<path d="M3.44449 182.1L139.498 176.037C141.401 175.953 143.012 177.427 143.096 179.33L145.476 232.717C145.56 234.62 144.087 236.23 142.185 236.315L6.13071 242.378C4.22779 242.463 2.61752 240.99 2.53272 239.087L0.153561 185.7C0.0687597 183.797 1.54157 182.185 3.44449 182.1Z" fill="#454061"/>
<path d="M103.402 221.862L97.3571 222.132L104.407 191.42L110.454 191.151L103.402 221.862Z" fill="#79768E"/>
<path d="M98.9561 192.614C98.4705 192.037 97.7238 191.747 96.975 191.842L63.7571 193.323L62.3827 199.337L92.5986 197.99L91.1173 204.416L66.9482 205.493L66.9477 205.481L60.9037 205.75L56.6972 224.084L62.7425 223.814L65.5605 211.518L92.7331 210.307C93.6053 210.262 94.4381 209.92 95.0894 209.337C95.7815 208.772 96.2671 207.992 96.4693 207.123L99.2873 194.826C99.5375 194.078 99.4142 193.256 98.9561 192.614Z" fill="#79768E"/>
<path d="M53.0808 222.202C52.8005 223.418 51.7467 224.3 50.5008 224.361L19.3287 225.751C18.5946 225.836 17.867 225.543 17.3956 224.974C16.9415 224.359 16.8083 223.565 17.0388 222.836L23.4206 195.115L29.4646 194.845L23.7657 219.603L47.954 218.525L53.6529 193.767L59.6983 193.498L53.0808 222.202Z" fill="#79768E"/>
<path d="M120.895 190.739L129.216 205.604L113.821 221.523L120.895 190.739Z" fill="#575274"/>
<path d="M115.524 190.979L123.844 205.843L108.435 221.763L115.524 190.979Z" fill="#79768E"/>
<path d="M246.991 206.506C246.734 204.044 244.53 202.255 242.067 202.513C239.606 202.77 237.818 204.974 238.076 207.437C238.331 209.896 240.533 211.684 242.995 211.429C245.458 211.175 247.246 208.97 246.991 206.506Z" fill="#454061"/>
<path d="M242.964 195.458C243.163 195.651 243.381 195.827 243.612 195.984C245.785 197.459 248.741 196.895 250.216 194.722C251.514 192.811 251.249 190.242 249.591 188.635C249.391 188.441 249.172 188.264 248.941 188.107C246.762 186.64 243.806 187.218 242.34 189.397C241.057 191.301 241.319 193.852 242.964 195.458Z" fill="#454061"/>
<path d="M253.894 184.405C254.655 187.075 257.437 188.624 260.108 187.864C262.779 187.102 264.327 184.319 263.566 181.648C262.805 178.978 260.022 177.43 257.352 178.191L257.35 178.191C254.684 178.943 253.134 181.713 253.885 184.377C253.889 184.386 253.891 184.396 253.894 184.405Z" fill="#454061"/>
<path d="M270.383 187.926C272.486 189.961 275.84 189.906 277.875 187.803C279.908 185.702 279.854 182.347 277.751 180.313C275.648 178.278 272.295 178.331 270.259 180.434C269.83 180.876 269.484 181.393 269.232 181.955C268.324 183.991 268.782 186.376 270.383 187.926Z" fill="#454061"/>
<path d="M280.11 197.254C281.453 200.029 284.793 201.187 287.567 199.843C290.34 198.499 291.499 195.16 290.155 192.387C288.811 189.614 285.472 188.454 282.7 189.798C281.365 190.445 280.343 191.596 279.858 192.996C279.373 194.393 279.464 195.924 280.11 197.254Z" fill="#454061"/>
<path d="M281.039 208.696C280.253 211.827 282.156 214.999 285.286 215.785L285.289 215.788C288.42 216.573 291.595 214.669 292.38 211.54C293.196 208.415 291.327 205.221 288.202 204.405C285.077 203.589 281.884 205.458 281.068 208.582C281.059 208.619 281.048 208.658 281.039 208.696Z" fill="#454061"/>
<path d="M282.347 218.457C279.915 216.111 276.042 216.18 273.696 218.612C271.638 220.746 271.404 224.048 273.143 226.449C273.355 226.739 273.593 227.011 273.851 227.261C276.282 229.607 280.155 229.538 282.502 227.106C284.56 224.974 284.792 221.67 283.052 219.269C282.841 218.977 282.605 218.707 282.347 218.457Z" fill="#454061"/>
<path d="M267.745 222.485C265.21 220.03 261.165 220.094 258.708 222.629C256.254 225.164 256.318 229.209 258.853 231.666C261.387 234.12 265.434 234.057 267.889 231.521C268.933 230.444 269.564 229.033 269.672 227.537C269.808 225.651 269.103 223.801 267.745 222.485Z" fill="#454061"/>
<path d="M244.422 225.797C241.664 223.127 241.593 218.727 244.263 215.969C246.933 213.211 251.334 213.14 254.091 215.809C256.85 218.48 256.921 222.88 254.251 225.638C251.581 228.396 247.181 228.468 244.422 225.797Z" fill="#454061"/>
<path d="M395.321 33.6053C416.685 33.6053 434.002 50.9227 434.002 72.2858C434.002 93.6489 416.685 110.966 395.321 110.966C373.958 110.966 356.641 93.6489 356.641 72.2858C356.641 50.9227 373.958 33.6053 395.321 33.6053Z" fill="#79768E"/>
<path d="M396.704 110.966C402.621 110.125 407.805 103.953 411.069 94.8353C406.352 93.7788 401.538 93.2115 396.704 93.1437V110.966Z" fill="#454061"/>
<path d="M406.156 109.517C406.506 109.416 406.855 109.315 407.201 109.204C407.493 109.11 407.779 109.006 408.066 108.908C408.407 108.79 408.744 108.67 409.082 108.547C409.371 108.438 409.655 108.321 409.941 108.205L410.927 107.791C411.21 107.665 411.491 107.534 411.774 107.403C412.092 107.253 412.411 107.1 412.725 106.941C413.001 106.799 413.278 106.654 413.555 106.506C413.865 106.34 414.174 106.17 414.48 105.997C414.756 105.84 415.022 105.684 415.29 105.522L416.185 104.969C416.452 104.8 416.713 104.629 416.974 104.451C417.266 104.255 417.553 104.047 417.84 103.843C418.096 103.663 418.354 103.481 418.604 103.291C418.881 103.077 419.164 102.858 419.441 102.637C419.686 102.439 419.935 102.246 420.177 102.043C420.453 101.813 420.718 101.574 420.983 101.336C421.219 101.128 421.455 100.922 421.684 100.708C421.948 100.462 422.205 100.206 422.462 99.9535C422.684 99.7327 422.909 99.5162 423.127 99.2896C423.168 99.2477 423.207 99.203 423.249 99.1597C420.234 97.6023 417.06 96.3797 413.777 95.5137C412.071 100.957 409.033 105.89 404.941 109.864L405.279 109.783C405.576 109.696 405.868 109.598 406.156 109.517Z" fill="#454061"/>
<path d="M434.001 73.748H417.421C417.357 80.2201 416.418 86.656 414.628 92.8768C418.278 93.8511 421.8 95.2526 425.122 97.0525C430.577 90.4794 433.699 82.2841 434.001 73.748Z" fill="#454061"/>
<path d="M396.706 70.9825H414.658C414.592 64.7371 413.678 58.5293 411.945 52.5278C406.945 53.6652 401.84 54.2728 396.711 54.3378L396.706 70.9825Z" fill="#454061"/>
<path d="M396.704 33.7598V51.5852C401.538 51.516 406.352 50.9487 411.069 49.8922C407.812 40.7745 402.621 34.5998 396.704 33.7598Z" fill="#454061"/>
<path d="M396.704 90.3769C401.831 90.4418 406.937 91.0495 411.937 92.1869C413.671 86.1854 414.584 79.9775 414.652 73.7321H396.697L396.704 90.3769Z" fill="#454061"/>
<path d="M425.124 47.6781C421.803 49.4779 418.281 50.8794 414.631 51.8537C416.42 58.0746 417.359 64.5105 417.421 70.9825H433.998C433.696 62.4465 430.575 54.2511 425.124 47.6781Z" fill="#454061"/>
<path d="M423.259 45.5809C423.218 45.5391 423.178 45.4972 423.139 45.4539C422.921 45.2273 422.692 45.0108 422.469 44.7914C422.212 44.5388 421.96 44.2833 421.696 44.038C421.468 43.8243 421.229 43.6237 420.994 43.4101C420.726 43.1734 420.452 42.9324 420.182 42.7014C419.942 42.4993 419.697 42.3074 419.457 42.114C419.181 41.8888 418.897 41.668 418.613 41.4544C418.363 41.2725 418.112 41.0921 417.856 40.9001C417.568 40.6923 417.275 40.4859 416.98 40.2867C416.722 40.1063 416.459 39.9432 416.197 39.7772C415.898 39.5852 415.6 39.3961 415.292 39.2143C415.027 39.0555 414.749 38.8953 414.486 38.7437C414.177 38.5662 413.865 38.3944 413.554 38.2285C413.277 38.0913 413.002 37.9383 412.725 37.8012C412.406 37.6396 412.086 37.4851 411.755 37.3321C411.48 37.2008 411.201 37.0738 410.914 36.9496C410.586 36.8039 410.254 36.6725 409.925 36.534C409.639 36.4185 409.356 36.3016 409.069 36.1933C408.733 36.0649 408.392 35.9465 408.053 35.8325C407.764 35.7314 407.477 35.629 407.187 35.5366C406.842 35.424 406.496 35.3215 406.142 35.2176C405.853 35.1325 405.562 35.0487 405.273 34.9708C405.161 34.9405 405.049 34.916 404.937 34.8871C409.03 38.8606 412.066 43.794 413.773 49.2369C417.058 48.3695 420.239 47.1426 423.259 45.5809Z" fill="#454061"/>
<path d="M356.641 70.9811H373.218C373.281 64.5076 374.221 58.0731 376.011 51.8523C372.36 50.878 368.837 49.4765 365.516 47.6766C360.063 54.2497 356.941 62.4451 356.641 70.9811Z" fill="#454061"/>
<path d="M393.937 110.966V93.1437C389.103 93.2115 384.29 93.7788 379.573 94.8353C382.839 103.953 388.022 110.123 393.937 110.966Z" fill="#454061"/>
<path d="M393.937 73.7466H375.982C376.048 79.992 376.96 86.2013 378.695 92.2014C383.695 91.064 388.802 90.4578 393.93 90.3928L393.937 73.7466Z" fill="#454061"/>
<path d="M393.937 33.7598C388.021 34.6013 382.835 40.7745 379.573 49.8922C384.29 50.9502 389.103 51.5174 393.937 51.5852V33.7598Z" fill="#454061"/>
<path d="M393.937 54.3507C388.81 54.2858 383.704 53.6796 378.704 52.5422C376.97 58.5422 376.057 64.7516 375.989 70.997H393.944L393.937 54.3507Z" fill="#454061"/>
<path d="M385.696 34.8799L385.359 34.9622C385.065 35.0387 384.775 35.1267 384.485 35.2104C384.137 35.3129 383.793 35.4154 383.444 35.5279C383.151 35.6232 382.861 35.7242 382.572 35.8238C382.235 35.9436 381.897 36.0634 381.563 36.1861C381.273 36.2958 380.987 36.4127 380.702 36.5296L379.719 36.9439C379.434 37.0695 379.153 37.1994 378.87 37.3307C378.553 37.4808 378.234 37.6338 377.919 37.794C377.643 37.934 377.366 38.0798 377.09 38.227C376.78 38.393 376.47 38.5633 376.165 38.7365C375.89 38.891 375.618 39.0483 375.35 39.2114C375.05 39.3918 374.752 39.5737 374.456 39.7656C374.189 39.9345 373.927 40.1092 373.665 40.2853C373.374 40.483 373.087 40.6851 372.801 40.89C372.544 41.0719 372.287 41.2523 372.036 41.4443C371.753 41.6579 371.483 41.8787 371.199 42.0981C370.953 42.2958 370.704 42.4893 370.463 42.6942C370.187 42.9223 369.92 43.1604 369.657 43.3957C369.42 43.605 369.182 43.8085 368.95 44.0279C368.689 44.2718 368.432 44.5273 368.176 44.7799C367.954 45.0007 367.727 45.2186 367.509 45.4438C367.47 45.4857 367.431 45.5333 367.388 45.5751C370.403 47.1325 373.58 48.3565 376.862 49.2211C378.568 43.7825 381.607 38.852 385.696 34.8799Z" fill="#454061"/>
<path d="M368.172 99.939C368.429 100.192 368.684 100.449 368.948 100.697C369.178 100.91 369.412 101.11 369.65 101.322C369.918 101.561 370.192 101.801 370.462 102.03C370.701 102.231 370.946 102.426 371.185 102.619C371.463 102.844 371.74 103.065 372.033 103.28C372.282 103.461 372.535 103.643 372.789 103.835C373.078 104.042 373.371 104.25 373.665 104.449C373.922 104.63 374.185 104.793 374.449 104.96C374.746 105.152 375.045 105.339 375.352 105.522C375.618 105.682 375.888 105.839 376.159 105.994C376.468 106.171 376.778 106.343 377.092 106.509C377.367 106.646 377.644 106.801 377.922 106.938C378.241 107.099 378.56 107.251 378.89 107.405C379.166 107.535 379.447 107.665 379.733 107.789C380.059 107.935 380.39 108.065 380.72 108.204C381.005 108.319 381.289 108.436 381.576 108.544C381.911 108.673 382.253 108.793 382.592 108.905C382.88 109.006 383.168 109.11 383.46 109.202C383.805 109.314 384.15 109.416 384.505 109.519C384.793 109.602 385.082 109.686 385.372 109.764C385.483 109.796 385.596 109.82 385.709 109.849C381.615 105.874 378.581 100.942 376.874 95.4992C373.593 96.3638 370.416 97.5892 367.401 99.148C367.44 99.1885 367.48 99.2318 367.521 99.2751C367.723 99.5002 367.948 99.7196 368.172 99.939Z" fill="#454061"/>
<path d="M365.518 97.0494C368.84 95.2496 372.361 93.8481 376.012 92.8738C374.221 86.6529 373.283 80.2184 373.219 73.745H356.642C356.944 82.281 360.065 90.4764 365.518 97.0494Z" fill="#454061"/>
</svg>
