<svg width="485" height="448" viewBox="0 0 485 448" fill="none" xmlns="http://www.w3.org/2000/svg">
<path d="M422.274 269.838C396.885 364.59 299.492 420.82 204.739 395.431C109.986 370.042 53.7548 272.649 79.1438 177.896C104.533 83.1433 201.927 26.9138 296.68 52.3027C391.433 77.6917 447.663 175.085 422.274 269.838Z" stroke="#3AD9AC" stroke-width="3" stroke-linecap="square" stroke-dasharray="5 10"/>
<path d="M204.273 122.363H297.065C299.763 122.363 301.953 124.553 301.953 127.251V324.62C301.953 327.32 299.763 329.508 297.065 329.508H204.273C201.573 329.508 199.385 327.32 199.385 324.62V127.251C199.385 124.553 201.573 122.363 204.273 122.363Z" fill="#454061"/>
<path d="M228.182 126.724H205.532C204.181 126.724 203.086 127.818 203.086 129.168V323.1C203.086 324.45 204.181 325.543 205.532 325.543H295.806C297.156 325.543 298.252 324.45 298.252 323.1V129.174C298.252 127.825 297.156 126.73 295.806 126.73H228.182V126.724Z" fill="#36A691"/>
<path d="M211.22 131.654H219.863V135.328H211.22V131.654Z" fill="#454061"/>
<path d="M211.22 131.654H219.863V135.328H211.22V131.654Z" stroke="#454061" stroke-width="0.5" stroke-linecap="round" stroke-linejoin="round"/>
<path d="M219.863 132.273H221.205V134.712H219.863V132.273Z" fill="#454061"/>
<path d="M219.863 132.273H221.205V134.712H219.863V132.273Z" stroke="#454061" stroke-width="0.5" stroke-linecap="round" stroke-linejoin="round"/>
<path d="M279.608 133.997H281.142V135.328H279.608V133.997Z" fill="#454061"/>
<path d="M279.608 133.997H281.142V135.328H279.608V133.997Z" stroke="#454061" stroke-width="0.5" stroke-linecap="round" stroke-linejoin="round"/>
<path d="M282.601 132.657H284.135V135.33H282.601V132.657Z" fill="#454061"/>
<path d="M282.601 132.657H284.135V135.33H282.601V132.657Z" stroke="#454061" stroke-width="0.5" stroke-linecap="round" stroke-linejoin="round"/>
<path d="M285.592 131.315H287.126V135.33H285.592V131.315Z" fill="#454061"/>
<path d="M285.592 131.315H287.126V135.33H285.592V131.315Z" stroke="#454061" stroke-width="0.5" stroke-linecap="round" stroke-linejoin="round"/>
<path d="M288.583 129.976H290.117V135.33H288.583V129.976Z" fill="#454061"/>
<path d="M288.583 129.976H290.117V135.33H288.583V129.976Z" stroke="#454061" stroke-width="0.5" stroke-linecap="round" stroke-linejoin="round"/>
<path d="M368.853 272.293L479.247 275.427C482.405 275.517 484.892 278.151 484.803 281.307L482.915 347.781C482.826 350.937 480.193 353.426 477.035 353.336L366.641 350.202C363.483 350.112 360.997 347.478 361.087 344.322L362.974 277.848C363.064 274.692 365.695 272.203 368.853 272.293Z" fill="#454061"/>
<path d="M368.023 272.269L480.076 275.451C482.777 275.528 484.902 277.778 484.825 280.476L484.346 297.356L362.517 293.897L362.997 277.017C363.073 274.319 365.324 272.193 368.023 272.269Z" fill="#79768E"/>
<path d="M376.318 302.716L398.912 303.358C400.71 303.409 402.128 304.908 402.077 306.708L401.705 319.801C401.654 321.601 400.153 323.018 398.355 322.967L375.761 322.325C373.961 322.274 372.543 320.775 372.594 318.975L372.966 305.881C373.017 304.082 374.518 302.665 376.318 302.716Z" fill="#575274"/>
<path d="M447.474 304.736L470.068 305.378C471.867 305.429 473.285 306.928 473.234 308.728L473.229 308.884C473.178 310.684 471.677 312.101 469.879 312.049L447.285 311.408C445.485 311.357 444.067 309.857 444.118 308.058L444.123 307.902C444.174 306.102 445.675 304.685 447.474 304.736Z" fill="#575274"/>
<path d="M457.95 315.824L469.762 316.16C471.562 316.211 472.979 317.71 472.928 319.51L472.923 319.666C472.872 321.466 471.373 322.882 469.573 322.831L457.761 322.496C455.961 322.445 454.544 320.945 454.595 319.146L454.6 318.99C454.651 317.19 456.15 315.773 457.95 315.824Z" fill="#575274"/>
<path d="M3.25953 197.129L131.863 191.398C133.662 191.318 135.184 192.711 135.264 194.51L137.513 244.974C137.593 246.773 136.201 248.295 134.402 248.375L5.79865 254.106C3.99994 254.186 2.47785 252.794 2.39769 250.995L0.148814 200.531C0.0686566 198.733 1.46082 197.209 3.25953 197.129Z" fill="#454061"/>
<path d="M97.7437 234.713L92.0294 234.968L98.6931 205.939L104.409 205.684L97.7437 234.713Z" fill="#79768E"/>
<path d="M93.5409 207.067C93.082 206.522 92.3761 206.247 91.6684 206.338L60.2694 207.737L58.9703 213.422L87.5316 212.149L86.1314 218.223L63.2858 219.241L63.2853 219.229L57.5722 219.484L53.5961 236.814L59.3104 236.559L61.9741 224.935L87.6587 223.791C88.4831 223.749 89.2703 223.425 89.886 222.874C90.5402 222.34 90.9992 221.603 91.1903 220.781L93.854 209.158C94.0905 208.451 93.9739 207.674 93.5409 207.067Z" fill="#79768E"/>
<path d="M50.1777 235.035C49.9127 236.184 48.9166 237.018 47.7389 237.076L18.2738 238.389C17.5799 238.469 16.8922 238.193 16.4466 237.654C16.0173 237.074 15.8915 236.323 16.1093 235.634L22.1416 209.431L27.8546 209.176L22.4678 232.578L45.3316 231.559L50.7184 208.157L56.4328 207.903L50.1777 235.035Z" fill="#79768E"/>
<path d="M114.279 205.295L122.144 219.346L107.592 234.393L114.279 205.295Z" fill="#575274"/>
<path d="M109.202 205.521L117.066 219.572L102.501 234.62L109.202 205.521Z" fill="#79768E"/>
<path d="M233.471 220.199C233.227 217.871 231.144 216.18 228.817 216.424C226.49 216.667 224.8 218.751 225.044 221.078C225.285 223.403 227.367 225.093 229.693 224.852C232.022 224.611 233.712 222.527 233.471 220.199Z" fill="#454061"/>
<path d="M229.664 209.755C229.853 209.938 230.059 210.104 230.277 210.252C232.33 211.647 235.125 211.113 236.519 209.06C237.746 207.253 237.496 204.825 235.929 203.306C235.739 203.123 235.532 202.955 235.314 202.807C233.254 201.421 230.46 201.967 229.075 204.026C227.862 205.826 228.11 208.237 229.664 209.755Z" fill="#454061"/>
<path d="M239.996 199.307C240.715 201.831 243.345 203.295 245.87 202.577C248.395 201.856 249.857 199.226 249.139 196.702C248.419 194.178 245.788 192.714 243.264 193.434L243.262 193.434C240.743 194.145 239.278 196.763 239.988 199.282C239.991 199.29 239.993 199.299 239.996 199.307Z" fill="#454061"/>
<path d="M255.582 202.635C257.57 204.56 260.74 204.507 262.664 202.52C264.585 200.533 264.534 197.362 262.546 195.44C260.559 193.516 257.389 193.566 255.465 195.554C255.059 195.972 254.732 196.46 254.494 196.992C253.635 198.916 254.069 201.171 255.582 202.635Z" fill="#454061"/>
<path d="M264.776 211.453C266.046 214.076 269.203 215.171 271.825 213.9C274.447 212.629 275.542 209.474 274.271 206.852C273.001 204.231 269.845 203.135 267.224 204.405C265.963 205.017 264.996 206.104 264.538 207.428C264.08 208.748 264.166 210.196 264.776 211.453Z" fill="#454061"/>
<path d="M265.655 222.268C264.912 225.227 266.71 228.226 269.669 228.969L269.672 228.972C272.632 229.714 275.633 227.915 276.375 224.956C277.146 222.003 275.379 218.984 272.425 218.212C269.472 217.441 266.454 219.207 265.682 222.161C265.674 222.196 265.663 222.233 265.655 222.268Z" fill="#454061"/>
<path d="M266.891 231.495C264.592 229.277 260.932 229.343 258.714 231.641C256.768 233.658 256.547 236.78 258.191 239.049C258.391 239.323 258.616 239.58 258.86 239.816C261.158 242.034 264.819 241.969 267.037 239.67C268.983 237.655 269.202 234.532 267.557 232.263C267.358 231.986 267.135 231.731 266.891 231.495Z" fill="#454061"/>
<path d="M253.089 235.302C250.692 232.982 246.868 233.042 244.546 235.439C242.227 237.834 242.287 241.658 244.684 243.98C247.079 246.3 250.904 246.24 253.224 243.844C254.212 242.825 254.808 241.492 254.91 240.078C255.038 238.295 254.372 236.546 253.089 235.302Z" fill="#454061"/>
<path d="M231.043 238.433C228.436 235.909 228.368 231.749 230.892 229.143C233.416 226.536 237.576 226.468 240.182 228.992C242.79 231.517 242.857 235.676 240.333 238.283C237.809 240.889 233.65 240.958 231.043 238.433Z" fill="#454061"/>
<path d="M373.679 56.7653C393.872 56.7653 410.241 73.1344 410.241 93.3277C410.241 113.521 393.872 129.89 373.679 129.89C353.486 129.89 337.117 113.521 337.117 93.3277C337.117 73.1344 353.486 56.7653 373.679 56.7653Z" fill="#79768E"/>
<path d="M374.986 129.89C380.578 129.095 385.479 123.261 388.564 114.642C384.105 113.644 379.555 113.108 374.986 113.043V129.89Z" fill="#454061"/>
<path d="M383.921 128.52C384.251 128.425 384.581 128.329 384.909 128.224C385.184 128.136 385.454 128.037 385.726 127.945C386.048 127.833 386.367 127.719 386.686 127.603C386.959 127.5 387.228 127.389 387.498 127.28L388.43 126.889C388.697 126.77 388.963 126.646 389.231 126.522C389.531 126.38 389.832 126.235 390.13 126.085C390.39 125.951 390.652 125.813 390.914 125.674C391.208 125.517 391.5 125.356 391.789 125.193C392.049 125.044 392.3 124.897 392.554 124.744L393.4 124.221C393.653 124.062 393.899 123.899 394.146 123.732C394.422 123.546 394.694 123.35 394.965 123.157C395.206 122.987 395.451 122.815 395.687 122.635C395.949 122.433 396.216 122.225 396.478 122.017C396.71 121.83 396.945 121.647 397.174 121.456C397.434 121.238 397.685 121.012 397.935 120.787C398.159 120.591 398.381 120.396 398.598 120.194C398.848 119.961 399.091 119.719 399.334 119.48C399.544 119.272 399.756 119.067 399.963 118.853C400.001 118.813 400.038 118.771 400.077 118.73C397.227 117.258 394.227 116.102 391.124 115.284C389.512 120.429 386.64 125.092 382.772 128.848L383.091 128.771C383.372 128.689 383.648 128.597 383.921 128.52Z" fill="#454061"/>
<path d="M410.24 94.7098H394.568C394.508 100.827 393.62 106.911 391.928 112.791C395.378 113.712 398.707 115.037 401.848 116.738C407.004 110.525 409.955 102.778 410.24 94.7098Z" fill="#454061"/>
<path d="M374.987 92.0957H391.957C391.894 86.1923 391.03 80.3244 389.392 74.6516C384.666 75.7266 379.84 76.301 374.993 76.3624L374.987 92.0957Z" fill="#454061"/>
<path d="M374.986 56.9113V73.7606C379.555 73.6952 384.105 73.159 388.564 72.1603C385.486 63.5419 380.578 57.7053 374.986 56.9113Z" fill="#454061"/>
<path d="M374.986 110.428C379.832 110.489 384.659 111.064 389.385 112.139C391.024 106.466 391.887 100.598 391.951 94.6948H374.979L374.986 110.428Z" fill="#454061"/>
<path d="M401.849 70.0674C398.71 71.7687 395.381 73.0935 391.931 74.0144C393.623 79.8946 394.509 85.9781 394.568 92.0957H410.237C409.952 84.0271 407.002 76.2805 401.849 70.0674Z" fill="#454061"/>
<path d="M400.087 68.0851C400.049 68.0455 400.01 68.006 399.973 67.965C399.767 67.7508 399.551 67.5462 399.34 67.3388C399.098 67.1001 398.859 66.8586 398.609 66.6266C398.394 66.4247 398.168 66.2351 397.946 66.0332C397.692 65.8094 397.433 65.5816 397.178 65.3633C396.952 65.1723 396.72 64.9908 396.493 64.808C396.233 64.5952 395.964 64.3864 395.695 64.1845C395.459 64.0126 395.222 63.8421 394.98 63.6606C394.707 63.4642 394.43 63.2691 394.152 63.0808C393.908 62.9102 393.659 62.7561 393.411 62.5992C393.129 62.4177 392.848 62.239 392.556 62.0671C392.306 61.917 392.043 61.7656 391.794 61.6223C391.502 61.4545 391.208 61.2922 390.913 61.1353C390.651 61.0057 390.392 60.861 390.13 60.7314C389.828 60.5786 389.526 60.4326 389.213 60.288C388.953 60.1639 388.689 60.0438 388.418 59.9265C388.108 59.7887 387.794 59.6645 387.483 59.5336C387.213 59.4244 386.946 59.3139 386.674 59.2116C386.356 59.0902 386.034 58.9783 385.714 58.8705C385.441 58.775 385.169 58.6781 384.895 58.5908C384.569 58.4844 384.242 58.3875 383.907 58.2893C383.634 58.2088 383.359 58.1297 383.086 58.056C382.98 58.0273 382.874 58.0042 382.768 57.9769C386.637 61.7328 389.506 66.3961 391.12 71.5409C394.226 70.721 397.233 69.5613 400.087 68.0851Z" fill="#454061"/>
<path d="M337.117 92.0943H352.786C352.846 85.9754 353.734 79.8932 355.426 74.013C351.975 73.0921 348.645 71.7673 345.506 70.066C340.351 76.2791 337.4 84.0257 337.117 92.0943Z" fill="#454061"/>
<path d="M372.371 129.89V113.043C367.801 113.108 363.251 113.644 358.793 114.642C361.88 123.261 366.78 129.093 372.371 129.89Z" fill="#454061"/>
<path d="M372.371 94.7084H355.398C355.461 100.612 356.323 106.481 357.963 112.153C362.689 111.077 367.516 110.504 372.364 110.443L372.371 94.7084Z" fill="#454061"/>
<path d="M372.371 56.9113C366.778 57.7067 361.876 63.5419 358.793 72.1603C363.251 73.1603 367.801 73.6965 372.371 73.7606V56.9113Z" fill="#454061"/>
<path d="M372.371 76.3747C367.525 76.3133 362.698 75.7402 357.972 74.6652C356.333 80.3366 355.469 86.2059 355.405 92.1093H372.377L372.371 76.3747Z" fill="#454061"/>
<path d="M364.58 57.97L364.262 58.0478C363.984 58.1201 363.71 58.2033 363.436 58.2825C363.107 58.3793 362.782 58.4762 362.452 58.5826C362.175 58.6727 361.901 58.7682 361.628 58.8623C361.309 58.9755 360.989 59.0888 360.674 59.2047C360.4 59.3084 360.13 59.4189 359.86 59.5294L358.931 59.921C358.662 60.0397 358.396 60.1625 358.128 60.2866C357.828 60.4285 357.527 60.5732 357.229 60.7246C356.969 60.8569 356.707 60.9947 356.446 61.1339C356.153 61.2908 355.86 61.4518 355.572 61.6155C355.311 61.7615 355.055 61.9102 354.801 62.0644C354.517 62.2349 354.236 62.4068 353.956 62.5882C353.704 62.7479 353.456 62.913 353.209 63.0794C352.933 63.2663 352.662 63.4573 352.391 63.6511C352.149 63.823 351.906 63.9935 351.668 64.175C351.401 64.3769 351.146 64.5856 350.877 64.793C350.645 64.9799 350.409 65.1627 350.181 65.3565C349.921 65.572 349.668 65.7971 349.42 66.0195C349.196 66.2173 348.971 66.4097 348.751 66.6171C348.505 66.8476 348.262 67.0891 348.02 67.3279C347.81 67.5366 347.596 67.7426 347.39 67.9555C347.353 67.995 347.316 68.0401 347.275 68.0796C350.125 69.5517 353.128 70.7087 356.231 71.5259C357.843 66.3851 360.715 61.7246 364.58 57.97Z" fill="#454061"/>
<path d="M348.016 119.467C348.259 119.705 348.5 119.948 348.75 120.183C348.967 120.385 349.188 120.573 349.413 120.774C349.667 121 349.926 121.227 350.181 121.444C350.406 121.633 350.638 121.817 350.865 122C351.127 122.213 351.389 122.422 351.666 122.625C351.902 122.796 352.14 122.968 352.381 123.149C352.653 123.345 352.93 123.542 353.209 123.73C353.452 123.901 353.7 124.055 353.95 124.213C354.231 124.395 354.513 124.571 354.804 124.744C355.055 124.895 355.31 125.044 355.566 125.19C355.858 125.358 356.152 125.52 356.448 125.677C356.708 125.807 356.97 125.953 357.232 126.082C357.534 126.235 357.835 126.378 358.148 126.524C358.408 126.647 358.674 126.77 358.944 126.887C359.253 127.025 359.565 127.148 359.878 127.279C360.146 127.388 360.415 127.498 360.687 127.601C361.003 127.722 361.326 127.835 361.647 127.942C361.919 128.037 362.191 128.136 362.467 128.223C362.793 128.328 363.119 128.425 363.455 128.522C363.728 128.601 364 128.68 364.275 128.754C364.38 128.784 364.486 128.807 364.593 128.834C360.723 125.077 357.856 120.415 356.242 115.27C353.141 116.087 350.138 117.246 347.288 118.719C347.324 118.757 347.363 118.798 347.401 118.839C347.592 119.052 347.805 119.259 348.016 119.467Z" fill="#454061"/>
<path d="M345.507 116.735C348.648 115.034 351.975 113.709 355.427 112.788C353.734 106.908 352.847 100.826 352.787 94.707H337.118C337.403 102.776 340.353 110.522 345.507 116.735Z" fill="#454061"/>
</svg>
